Description

Sinopse e detalhes

John McClane (Bruce Willis) é um detetive de Nova York que está indo a Los Angeles para se encontrar com sua esposa (Bonnie Bedelia), que trabalha em uma empresa japonesa. Porém, ao chegar no prédio onde ela trabalha, percebe que o edifício está sendo assaltado por um bando de terroristas e decide atrapalhar seus planos para resgatar sua mulher.

Format : Matroska
Format version : Version 2
File size : 622 MiB
Duration : 2h 12mn
Overall bit rate : 658 Kbps
Encoded date : UTC 2013-05-13 16:21:04
Writing application : mkvmerge v5.8.0 ('No Sleep / Pillow') built on Sep 2 2012 15:37:04
Writing library : libebml v1.2.3 + libmatroska v1.3.0

Video
ID : 1
Format : AVC
Format/Info : Advanced Video Codec
Format profile : High@L4.1
Format settings, CABAC : Yes
Format settings, ReFrames : 4 frames
Muxing mode : Header stripping
Codec ID : V_MPEG4/ISO/AVC
Duration : 2h 12mn
Bit rate : 453 Kbps
Width : 720 pixels
Height : 304 pixels
Display aspect ratio : 2.35:1
Frame rate mode : Constant
Frame rate : 23.976 fps
Color space : YUV
Chroma subsampling : 4:2:0
Bit depth : 8 bits
Scan type : Progressive
Bits/(Pixel*Frame) : 0.086
Stream size : 428 MiB (69%)
Title : Duro de Matar1 ( by fantasma )
Writing library : x264 core 130 r2273 b3065e6
Encoding settings : cabac=1 / ref=3 / deblock=1:0:0 / analyse=0x3:0x113 / me=hex / subme=7 / psy=1 / psy_rd=1.00:0.00 / mixed_ref=1 / me_range=16 / chroma_me=1 / trellis=1 / 8x8dct=1 / cqm=0 / deadzone=21,11 / fast_pskip=1 / chroma_qp_offset=-2 / threads=3 / lookahead_threads=1 / sliced_threads=0 / nr=0 / decimate=1 / interlaced=0 / bluray_compat=0 / constrained_intra=0 / bframes=3 / b_pyramid=2 / b_adapt=1 / b_bias=0 / direct=1 / weightb=1 / open_gop=0 / weightp=2 / keyint=240 / keyint_min=23 / scenecut=40 / intra_refresh=0 / rc_lookahead=40 / rc=crf / mbtree=1 / crf=23.0 / qcomp=0.60 / qpmin=0 / qpmax=69 / qpstep=4 / vbv_maxrate=62500 / vbv_bufsize=78125 / crf_max=0.0 / nal_hrd=none / ip_ratio=1.40 / aq=1:1.00
Default : Yes
Forced : No

Audio
ID : 2
Format : AC-3
Format/Info : Audio Coding 3
Mode extension : CM (complete main)
Format settings, Endianness : Big
Muxing mode : Header stripping
Codec ID : A_AC3
Duration : 2h 12mn
Bit rate mode : Constant
Bit rate : 192 Kbps
Channel(s) : 2 channels
Channel positions : Front: L R
Sampling rate : 48.0 KHz
Bit depth : 16 bits
Compression mode : Lossy
Delay relative to video : 16ms
Stream size : 182 MiB (29%)
Title : by fantasma
Language : Portuguese
Default : Yes
Forced : No

Text #1
ID : 3
Format : VobSub
Muxing mode : zlib
Codec ID : S_VOBSUB
Codec ID/Info : The same subtitle format used on DVDs
Language : English
Default : No
Forced : No

Text #2
ID : 4
Format : VobSub
Muxing mode : zlib
Codec ID : S_VOBSUB
Codec ID/Info : The same subtitle format used on DVDs
Language : Portuguese
Default : No
Forced : No

Text #3
ID : 5
Format : VobSub
Muxing mode : zlib
Codec ID : S_VOBSUB
Codec ID/Info : The same subtitle format used on DVDs
Language : Portuguese
Default : No
Forced : No

Text #4
ID : 6
Format : VobSub
Muxing mode : zlib
Codec ID : S_VOBSUB
Codec ID/Info : The same subtitle format used on DVDs
Language : Spanish
Default : No
Forced : No

Text #5
ID : 7
Format : VobSub
Muxing mode : zlib
Codec ID : S_VOBSUB
Codec ID/Info : The same subtitle format used on DVDs
Language : Spanish
Default : No
Forced : No

Text #6
ID : 8
Format : UTF-8
Codec ID : S_TEXT/UTF8
Codec ID/Info : UTF-8 Plain Text
Title : Credito
Language : Portuguese
Default : Yes
Forced : No

Menu
00:00:00.000 : en:Chapter 01
00:05:31.400 : en:Chapter 02
00:09:01.234 : en:Chapter 03
00:12:28.868 : en:Chapter 04
00:16:58.068 : en:Chapter 05
00:22:52.702 : en:Chapter 06
00:27:32.869 : en:Chapter 07
00:34:07.369 : en:Chapter 08
00:38:49.703 : en:Chapter 09
00:43:22.370 : en:Chapter 10
00:45:16.537 : en:Chapter 11
00:48:20.405 : en:Chapter 12
00:52:36.572 : en:Chapter 13
00:56:21.239 : en:Chapter 14
00:58:12.906 : en:Chapter 15
01:04:15.240 : en:Chapter 16
01:09:13.573 : en:Chapter 17
01:12:47.073 : en:Chapter 18
01:15:38.240 : en:Chapter 19
01:19:10.607 : en:Chapter 20
01:29:22.575 : en:Chapter 21
01:30:02.242 : en:Chapter 22
01:41:21.275 : en:Chapter 23
01:45:18.909 : en:Chapter 24
01:48:05.076 : en:Chapter 25
01:51:34.243 : en:Chapter 26
01:53:34.743 : en:Chapter 27
01:59:37.577 : en:Chapter 28
02:03:04.577 : en:Chapter 29
02:06:54.111 : en:Chapter 30